<svg width="486" height="405" viewBox="0 0 486 405" fill="none" xmlns="http://www.w3.org/2000/svg">
<path d="M364.263 81.2631C354.818 81.2631 345.71 82.6914 337.114 85.2783C337.181 83.9309 337.316 82.624 337.316 81.2631C337.316 36.6248 301.112 0.421043 256.474 0.421043C219.165 0.421043 187.852 25.7246 178.528 60.069C169.285 56.3907 159.234 54.3158 148.684 54.3158C104.032 54.3158 67.8421 90.5061 67.8421 135.158C67.8421 179.783 104.032 216 148.684 216C185.993 216 217.306 190.696 226.629 156.339C235.872 160.017 245.924 162.105 256.474 162.105C261.526 162.105 266.444 161.58 271.241 160.704C270.459 165.555 269.947 170.499 269.947 175.579C269.947 227.655 312.187 269.895 364.263 269.895C416.339 269.895 458.579 227.655 458.579 175.579C458.579 123.49 416.339 81.2631 364.263 81.2631Z" fill="#B4C3CC"/>
<path d="M418.158 269.895C411.866 269.895 405.897 271.04 400.117 272.643C403.027 265.556 404.684 257.822 404.684 249.684C404.684 216.202 377.535 189.053 344.053 189.053C330.323 189.053 317.819 193.782 307.66 201.462C298.148 163.399 263.803 135.158 222.789 135.158C184.551 135.158 152.12 159.707 140.182 193.863C130.104 190.737 119.379 189.053 108.263 189.053C48.7364 189.053 0.473686 237.315 0.473686 296.842C0.473686 356.382 48.7364 404.632 108.263 404.632H418.158C455.372 404.632 485.526 374.477 485.526 337.263C485.526 300.049 455.372 269.895 418.158 269.895Z" fill="#8899A6"/>
</svg>
